<svg version="1.1" xmlns="http://www.w3.org/2000/svg" viewBox="0 0 858.1545588731765 376.5941668961476" width="1716.309117746353" height="753.1883337922952" filter="invert(93%) hue-rotate(180deg)">
  <!-- svg-source:excalidraw -->
  
  <defs>
    <style>
      @font-face {
        font-family: "Virgil";
        src: url("https://excalidraw.com/Virgil.woff2");
      }
      @font-face {
        font-family: "Cascadia";
        src: url("https://excalidraw.com/Cascadia.woff2");
      }
    </style>
  </defs>
  <g stroke-opacity="0" fill-opacity="0" stroke-linecap="round" transform="translate(228.482377371937 74.63228766883722) rotate(0 56.5 60.5)"><path d="M68.97 2.08 C77.1 3.31, 86.54 8.39, 93.13 14.41 C99.72 20.43, 105.14 29.49, 108.48 38.21 C111.83 46.93, 113.9 57.47, 113.21 66.74 C112.53 76, 109.41 86.04, 104.36 93.79 C99.32 101.54, 90.95 108.78, 82.96 113.24 C74.98 117.7, 65.18 120.45, 56.46 120.56 C47.74 120.67, 38.19 117.9, 30.63 113.88 C23.07 109.86, 16.06 104.04, 11.12 96.44 C6.19 88.85, 2.43 77.81, 1.03 68.32 C-0.37 58.82, -0.15 48.12, 2.74 39.47 C5.63 30.81, 11.68 22.52, 18.36 16.4 C25.03 10.27, 33.22 4.79, 42.8 2.71 C52.38 0.63, 69.56 3.13, 75.84 3.91 C82.12 4.7, 80.75 6.4, 80.5 7.42 M64.3 -0.11 C72.42 0.17, 80.85 6.38, 88.09 12.1 C95.33 17.83, 103.6 25.83, 107.76 34.27 C111.91 42.71, 113.24 53.8, 113 62.75 C112.76 71.69, 110.41 79.71, 106.29 87.93 C102.17 96.16, 95.4 106.87, 88.27 112.11 C81.14 117.34, 72.12 118.53, 63.51 119.34 C54.91 120.16, 44.87 120.45, 36.63 117.02 C28.39 113.59, 19.71 105.67, 14.06 98.77 C8.41 91.87, 4.58 84.32, 2.74 75.63 C0.91 66.94, 1.13 55.94, 3.05 46.64 C4.97 37.35, 8.49 27.09, 14.26 19.85 C20.02 12.61, 29.14 6.24, 37.63 3.21 C46.13 0.17, 60.69 1.81, 65.22 1.64 C69.75 1.47, 64.95 1.16, 64.8 2.19" stroke="#000000" stroke-width="1" fill="none"></path></g><g stroke-linecap="round"><g stroke-opacity="0" fill-opacity="0" transform="translate(284.482377371937 191.63228766883722) rotate(0 0.3178541719680652 36.786404652493076)"><path d="M0 1.16 C0.23 12.99, 1.72 59.74, 2.09 71.89 M-1.45 0.73 C-1.44 12.58, 0.68 60.91, 1.19 72.85" stroke="#000000" stroke-width="1" fill="none"></path></g></g><g stroke-linecap="round"><g stroke-opacity="0" fill-opacity="0" transform="translate(281.482377371937 196.63228766883722) rotate(0 -12.879191890698849 20.39352002960166)"><path d="M1.11 -0.36 C-3.4 6.54, -21.37 35.16, -25.95 42.38 M0.24 -1.59 C-4.53 4.85, -22.28 33.34, -26.87 40.45" stroke="#000000" stroke-width="1" fill="none"></path></g></g><g stroke-linecap="round"><g stroke-opacity="0" fill-opacity="0" transform="translate(283.482377371937 195.63228766883722) rotate(0 17.734398113298198 21.64216900461355)"><path d="M0.02 0.27 C6.15 7.37, 30.75 35.73, 36.89 42.94 M-1.42 -0.64 C4.61 6.55, 30.07 36.38, 36.41 43.92" stroke="#000000" stroke-width="1" fill="none"></path></g></g><g stroke-linecap="round"><g stroke-opacity="0" fill-opacity="0" transform="translate(287.482377371937 263.6322876688372) rotate(0 13.43077898613177 22.84243956678546)"><path d="M0.44 0.31 C4.71 7.97, 21.16 37.58, 25.3 45.16 M-0.78 -0.57 C3.91 7.29, 22.89 38.32, 27.65 46.25" stroke="#000000" stroke-width="1" fill="none"></path></g></g><g stroke-linecap="round"><g stroke-opacity="0" fill-opacity="0" transform="translate(284.8008548205253 265.7211563561391) rotate(0 -9.724341969681007 24.417627761513018)"><path d="M1.17 -0.91 C-2.07 7.52, -16.58 41.54, -20.29 49.75 M0.32 1.22 C-2.9 9.41, -16.96 40.09, -20.61 48.11" stroke="#000000" stroke-width="1" fill="none"></path></g></g><g stroke-linecap="round"><g transform="translate(10.482377371936991 366.6322876688372) rotate(0 418.59490206465125 -3.0824372194707337)"><path d="M-0.48 -0.04 C139.21 -1.22, 698.21 -5.11, 837.67 -6.13 M1.47 -1.1 C141.1 -2.27, 697.52 -4.46, 837.08 -5.18" stroke="#000000" stroke-width="1" fill="none"></path></g></g><g stroke-linecap="round"><g stroke-opacity="0" fill-opacity="0" transform="translate(123.48237737193699 364.6322876688372) rotate(0 -1.9213215105468464 -175.42719325795773)"><path d="M0.99 0.61 C0.27 -57.84, -3.44 -292.83, -4.27 -351.47 M0.06 -0.11 C-0.77 -58.33, -4.12 -291.86, -4.84 -350.17" stroke="#000000" stroke-width="1" fill="none"></path></g></g><g stroke-linecap="round"><g stroke-opacity="0" fill-opacity="0" transform="translate(116.48237737193699 14.632287668837222) rotate(0 82.21270836887413 -2.480171911618669)"><path d="M0.19 -0.33 C27.91 -0.77, 137.93 -2.37, 165.6 -3.02 M-1.18 -1.55 C26.43 -2.28, 136.65 -4.38, 164.44 -4.63" stroke="#000000" stroke-width="1" fill="none"></path></g></g><g stroke-linecap="round"><g stroke-opacity="0" fill-opacity="0" transform="translate(286.482377371937 9.632287668837222) rotate(0 0.5055135005293323 35.11096588366665)"><path d="M-1.03 1.15 C-1.04 12.56, -0.25 56.7, -0.1 67.99 M0.64 0.71 C0.98 12.37, 1.78 58.47, 2.04 69.52" stroke="#000000" stroke-width="1" fill="none"></path></g></g><g stroke-linecap="round"><g stroke-opacity="0" fill-opacity="0" transform="translate(300.482377371937 134.63228766883722) rotate(0 8.203889596438955 -13.117482966682871)"><path d="M0.16 0.8 C2.93 -3.24, 14.5 -20.81, 17.62 -25.29 M-1.22 0.18 C1.28 -4.11, 13.17 -22.87, 16.48 -27.04" stroke="#000000" stroke-width="1" fill="none"></path></g></g><g stroke-linecap="round"><g stroke-opacity="0" fill-opacity="0" transform="translate(255.482377371937 133.63228766883722) rotate(0 9.583668243801242 -13.443353524059049)"><path d="M0.72 0.21 C3.63 -4.44, 14.33 -22.83, 17.23 -27.1 M-0.37 -0.73 C2.96 -5.33, 16.57 -21.69, 19.54 -26.13" stroke="#000000" stroke-width="1" fill="none"></path></g></g><g stroke-linecap="round"><g stroke-opacity="0" fill-opacity="0" transform="translate(299.482377371937 107.63228766883722) rotate(0 10.446140572801255 14.46064023912885)"><path d="M-0.65 1.1 C2.89 5.73, 18.12 22.57, 21.54 26.8 M1.22 0.63 C4.63 5.55, 17.48 23.79, 20.99 28.29" stroke="#000000" stroke-width="1" fill="none"></path></g></g><g stroke-linecap="round"><g stroke-opacity="0" fill-opacity="0" transform="translate(254.28860518029887 107.82451152543538) rotate(0 11.137781848758436 12.717834667828882)"><path d="M0.83 -0.81 C4.75 3.54, 18.79 20.74, 22.47 25.14 M-0.19 1.38 C3.72 5.94, 18.05 22.02, 21.86 26.24" stroke="#000000" stroke-width="1" fill="none"></path></g></g></svg>