<svg version="1.1" xmlns="http://www.w3.org/2000/svg" viewBox="0 0 472.55172248603265 115.00842727818235" width="945.1034449720653" height="230.0168545563647" filter="invert(93%) hue-rotate(180deg)">
  <!-- svg-source:excalidraw -->
  
  <defs>
    <style>
      @font-face {
        font-family: "Virgil";
        src: url("https://excalidraw.com/Virgil.woff2");
      }
      @font-face {
        font-family: "Cascadia";
        src: url("https://excalidraw.com/Cascadia.woff2");
      }
    </style>
  </defs>
  <g transform="translate(122.3132694537619 36.70920805482001) rotate(0 -0.000006634256124016247 15.826084302819254)" stroke="none"><path fill="#000000" d="M 2.38,0 Q 2.38,0 2.28,1.99 2.17,3.99 2.06,6.44 1.94,8.89 1.95,10.64 1.95,12.38 2.03,13.52 2.10,14.66 2.11,16.19 2.12,17.73 2.52,19.38 2.91,21.04 3.05,22.47 3.18,23.90 3.25,25.05 3.31,26.20 3.38,27.43 3.45,28.67 3.10,30.37 2.74,32.07 2.59,32.55 2.45,33.04 2.15,33.45 1.86,33.86 1.45,34.15 1.03,34.45 0.55,34.60 0.07,34.74 -0.43,34.73 -0.93,34.72 -1.41,34.54 -1.88,34.37 -2.28,34.05 -2.67,33.73 -2.94,33.31 -3.21,32.88 -3.34,32.39 -3.46,31.90 -3.42,31.40 -3.37,30.89 -3.17,30.43 -2.97,29.96 -2.64,29.59 -2.30,29.21 -1.86,28.96 -1.42,28.71 -0.92,28.62 -0.43,28.52 0.07,28.59 0.57,28.66 1.02,28.89 1.47,29.11 1.83,29.47 2.19,29.83 2.41,30.28 2.63,30.73 2.70,31.23 2.77,31.73 2.68,32.23 2.58,32.73 2.33,33.17 2.08,33.61 1.70,33.94 1.33,34.28 0.86,34.48 0.40,34.68 -0.09,34.72 -0.60,34.76 -1.09,34.64 -1.58,34.52 -2.01,34.24 -2.43,33.97 -2.75,33.58 -3.06,33.18 -3.24,32.71 -3.41,32.23 -3.43,31.73 -3.44,31.22 -3.44,31.22 -3.44,31.22 -3.10,29.95 -2.76,28.67 -2.69,27.45 -2.63,26.23 -2.58,25.12 -2.53,24.02 -2.49,22.92 -2.46,21.83 -2.66,20.45 -2.86,19.07 -2.69,17.96 -2.52,16.86 -2.31,15.76 -2.10,14.66 -2.03,13.52 -1.95,12.38 -1.95,10.64 -1.94,8.89 -2.06,6.44 -2.17,3.99 -2.28,1.99 -2.38,0 -2.35,-0.28 -2.31,-0.57 -2.21,-0.84 -2.11,-1.11 -1.95,-1.34 -1.78,-1.58 -1.57,-1.77 -1.35,-1.96 -1.10,-2.09 -0.84,-2.23 -0.56,-2.30 -0.28,-2.37 0.00,-2.37 0.28,-2.37 0.56,-2.30 0.84,-2.23 1.10,-2.09 1.35,-1.96 1.57,-1.77 1.78,-1.58 1.95,-1.34 2.11,-1.10 2.21,-0.84 2.31,-0.57 2.35,-0.28 2.38,0.00 2.38,0.00 L 2.38,0 Z"></path></g><g transform="translate(117.79151970851728 58.274428099826764) rotate(0 12.000002653702438 -1.7391304347825098)" stroke="none"><path fill="#000000" d="M -0.21,-2.63 Q -0.21,-2.63 0.97,-2.75 2.17,-2.86 3.70,-3.26 5.24,-3.66 6.31,-3.99 7.38,-4.32 8.61,-4.73 9.84,-5.14 11.17,-5.28 12.50,-5.43 14.15,-5.47 15.79,-5.51 17.07,-5.75 18.35,-5.98 20.99,-6.39 23.62,-6.79 24.15,-6.71 24.68,-6.63 25.16,-6.38 25.63,-6.13 26.01,-5.75 26.38,-5.36 26.61,-4.87 26.84,-4.39 26.90,-3.85 26.96,-3.32 26.85,-2.80 26.74,-2.27 26.47,-1.81 26.19,-1.35 25.79,-0.99 25.38,-0.64 24.88,-0.44 24.39,-0.24 23.85,-0.20 23.32,-0.17 22.80,-0.31 22.28,-0.45 21.83,-0.75 21.38,-1.05 21.06,-1.47 20.73,-1.89 20.55,-2.40 20.38,-2.91 20.37,-3.45 20.37,-3.98 20.54,-4.49 20.70,-5.00 21.02,-5.43 21.35,-5.86 21.79,-6.17 22.23,-6.47 22.75,-6.62 23.26,-6.77 23.80,-6.74 24.33,-6.72 24.83,-6.53 25.34,-6.33 25.75,-5.99 26.16,-5.64 26.44,-5.18 26.72,-4.73 26.84,-4.20 26.96,-3.68 26.91,-3.15 26.85,-2.61 26.63,-2.12 26.41,-1.63 26.04,-1.24 25.68,-0.85 25.20,-0.59 24.73,-0.34 24.20,-0.25 23.67,-0.15 23.67,-0.15 23.67,-0.15 22.43,-0.14 21.19,-0.14 19.34,0.15 17.48,0.44 15.83,0.54 14.18,0.63 12.68,0.60 11.18,0.56 10.08,0.81 8.98,1.07 7.94,1.36 6.91,1.65 5.86,1.93 4.80,2.21 3.71,2.33 2.62,2.46 1.42,2.55 0.21,2.63 -0.09,2.62 -0.41,2.61 -0.72,2.52 -1.03,2.43 -1.30,2.28 -1.58,2.12 -1.81,1.90 -2.04,1.68 -2.21,1.41 -2.39,1.14 -2.49,0.83 -2.59,0.53 -2.62,0.21 -2.64,-0.09 -2.59,-0.41 -2.54,-0.73 -2.42,-1.02 -2.29,-1.31 -2.10,-1.57 -1.91,-1.82 -1.66,-2.03 -1.42,-2.23 -1.13,-2.37 -0.84,-2.51 -0.53,-2.57 -0.21,-2.63 -0.21,-2.63 L -0.21,-2.63 Z"></path></g><g transform="translate(144.5741310578719 33.5787679648065) rotate(0 -1.739130434782595 20.173917024032107)" stroke="none"><path fill="#000000" d="M 2.54,0.47 Q 2.54,0.47 2.20,2.06 1.85,3.66 1.51,5.09 1.17,6.53 0.97,7.68 0.76,8.83 0.56,10.72 0.36,12.61 0.38,13.89 0.41,15.16 0.46,16.46 0.50,17.77 0.28,19.05 0.06,20.32 -0.13,21.63 -0.33,22.94 -0.34,24.39 -0.35,25.83 -0.31,26.92 -0.26,28.00 -0.22,29.09 -0.18,30.17 -0.13,31.52 -0.08,32.87 -0.05,34.10 -0.01,35.32 0.17,37.77 0.36,40.23 0.29,40.79 0.22,41.35 -0.02,41.86 -0.27,42.37 -0.67,42.77 -1.07,43.18 -1.58,43.43 -2.08,43.68 -2.64,43.76 -3.20,43.84 -3.76,43.74 -4.32,43.63 -4.81,43.36 -5.31,43.08 -5.69,42.66 -6.07,42.24 -6.29,41.72 -6.52,41.20 -6.57,40.64 -6.62,40.08 -6.48,39.53 -6.35,38.97 -6.04,38.50 -5.74,38.02 -5.30,37.66 -4.86,37.30 -4.33,37.11 -3.80,36.91 -3.24,36.89 -2.67,36.87 -2.13,37.04 -1.58,37.20 -1.12,37.53 -0.66,37.86 -0.33,38.31 -0.00,38.77 0.16,39.31 0.33,39.85 0.32,40.42 0.31,40.99 0.11,41.52 -0.07,42.05 -0.42,42.49 -0.78,42.94 -1.25,43.24 -1.73,43.55 -2.28,43.69 -2.83,43.83 -3.39,43.79 -3.95,43.74 -4.48,43.52 -5.00,43.30 -5.42,42.92 -5.84,42.55 -6.12,42.06 -6.41,41.56 -6.51,41.01 -6.62,40.45 -6.62,40.45 -6.62,40.45 -6.79,38.43 -6.95,36.41 -6.91,34.89 -6.88,33.37 -6.84,32.09 -6.79,30.82 -6.75,29.75 -6.71,28.69 -6.66,27.59 -6.60,26.50 -6.54,25.39 -6.49,24.29 -6.30,22.37 -6.11,20.45 -5.73,19.08 -5.36,17.71 -5.30,16.37 -5.23,15.02 -5.10,13.59 -4.97,12.17 -4.60,10.00 -4.23,7.82 -3.96,6.60 -3.68,5.38 -3.37,4.06 -3.05,2.73 -2.80,1.13 -2.54,-0.47 -2.44,-0.77 -2.35,-1.07 -2.19,-1.33 -2.03,-1.60 -1.80,-1.82 -1.58,-2.04 -1.32,-2.20 -1.05,-2.36 -0.75,-2.45 -0.45,-2.54 -0.14,-2.56 0.16,-2.58 0.47,-2.52 0.78,-2.46 1.06,-2.33 1.34,-2.20 1.59,-2.01 1.83,-1.82 2.02,-1.57 2.22,-1.32 2.34,-1.04 2.47,-0.75 2.52,-0.45 2.58,-0.14 2.56,0.16 2.54,0.47 2.54,0.47 L 2.54,0.47 Z"></path></g><g transform="translate(173.44369362156078 49.57877592591376) rotate(0 -2.2608616041100618 9.739127781080242)" stroke="none"><path fill="#000000" d="M 0,2.59 Q 0,2.59 -1.00,2.62 -2.00,2.66 -3.09,2.73 -4.18,2.81 -5.46,3.34 -6.75,3.87 -7.72,4.41 -8.70,4.96 -10.16,5.60 -11.62,6.24 -12.66,6.99 -13.71,7.75 -14.60,8.37 -15.50,8.99 -15.92,10.05 -16.34,11.11 -15.67,12.14 -15.01,13.17 -13.72,13.09 -12.44,13.01 -11.01,13.00 -9.59,12.99 -8.46,13.00 -7.33,13.01 -6.53,11.68 -5.73,10.35 -4.72,8.88 -3.70,7.40 -3.34,5.95 -2.99,4.50 -2.98,3.21 -2.96,1.92 -3.11,1.62 -3.25,1.32 -3.27,0.88 -3.29,0.43 -3.21,0.00 -3.12,-0.43 -2.94,-0.83 -2.75,-1.23 -2.47,-1.58 -2.20,-1.93 -1.84,-2.20 -1.49,-2.47 -1.08,-2.64 -0.68,-2.82 -0.24,-2.90 0.19,-2.97 0.63,-2.94 1.07,-2.91 1.50,-2.77 1.92,-2.63 2.30,-2.40 2.67,-2.17 2.98,-1.85 3.29,-1.53 3.52,-1.15 3.74,-0.77 3.87,-0.34 4.00,0.07 4.20,1.26 4.41,2.44 4.59,3.86 4.77,5.29 5.81,6.52 6.85,7.76 7.83,8.43 8.81,9.11 9.69,10.06 10.58,11.01 11.03,12.03 11.47,13.04 12.19,13.83 12.91,14.63 14.89,15.38 16.87,16.13 17.36,16.47 17.86,16.81 18.21,17.29 18.57,17.77 18.76,18.33 18.95,18.90 18.94,19.50 18.94,20.10 18.74,20.66 18.55,21.22 18.18,21.70 17.82,22.17 17.32,22.50 16.83,22.83 16.25,22.99 15.67,23.15 15.08,23.11 14.48,23.07 13.93,22.85 13.37,22.62 12.92,22.23 12.47,21.84 12.17,21.33 11.86,20.82 11.74,20.23 11.61,19.65 11.68,19.05 11.75,18.46 12.00,17.92 12.26,17.38 12.67,16.95 13.09,16.52 13.62,16.24 14.15,15.97 14.74,15.87 15.33,15.78 15.91,15.88 16.50,15.98 17.03,16.27 17.55,16.55 17.96,16.99 18.37,17.42 18.62,17.97 18.86,18.51 18.92,19.10 18.98,19.70 18.85,20.28 18.72,20.86 18.41,21.37 18.10,21.88 17.64,22.27 17.18,22.65 16.62,22.87 16.07,23.08 15.47,23.11 14.87,23.14 14.30,22.98 13.73,22.81 13.73,22.81 13.73,22.81 12.58,22.51 11.43,22.20 10.10,21.44 8.78,20.68 7.70,19.85 6.62,19.02 6.00,17.93 5.38,16.85 4.54,15.51 3.70,14.16 2.49,13.30 1.28,12.44 0.10,11.15 -1.07,9.85 -1.71,8.22 -2.35,6.58 -2.54,5.27 -2.73,3.96 -2.99,2.64 -3.25,1.32 -3.27,0.88 -3.29,0.44 -3.21,0.00 -3.12,-0.43 -2.94,-0.83 -2.75,-1.23 -2.47,-1.58 -2.20,-1.93 -1.84,-2.19 -1.49,-2.46 -1.08,-2.64 -0.68,-2.82 -0.24,-2.90 0.19,-2.97 0.63,-2.94 1.07,-2.91 1.50,-2.77 1.92,-2.63 2.29,-2.40 2.67,-2.17 2.98,-1.85 3.29,-1.53 3.52,-1.15 3.74,-0.77 3.87,-0.34 4.00,0.07 3.21,-0.79 2.42,-1.66 3.22,-0.73 4.02,0.18 4.17,2.04 4.32,3.91 4.26,5.10 4.20,6.30 3.74,8.12 3.27,9.94 2.56,11.02 1.86,12.09 1.18,13.12 0.51,14.15 -0.18,15.01 -0.87,15.88 -1.59,16.93 -2.30,17.98 -3.93,19.03 -5.57,20.09 -6.92,20.23 -8.27,20.37 -9.72,20.38 -11.17,20.38 -12.23,20.38 -13.30,20.37 -14.83,20.34 -16.37,20.31 -17.42,20.00 -18.47,19.69 -19.69,18.48 -20.92,17.27 -21.65,16.14 -22.38,15.00 -22.75,13.87 -23.13,12.73 -23.19,11.15 -23.25,9.57 -22.77,8.28 -22.30,7.00 -21.67,6.01 -21.04,5.01 -20.02,4.00 -18.99,2.99 -17.88,2.68 -16.76,2.37 -15.57,1.34 -14.37,0.32 -13.12,-0.16 -11.87,-0.65 -10.79,-1.03 -9.72,-1.41 -8.34,-2.02 -6.96,-2.62 -5.57,-2.71 -4.18,-2.81 -3.09,-2.73 -2.00,-2.66 -1.00,-2.62 0,-2.59 0.31,-2.55 0.62,-2.51 0.91,-2.40 1.20,-2.29 1.46,-2.11 1.72,-1.94 1.92,-1.70 2.13,-1.47 2.28,-1.19 2.42,-0.91 2.50,-0.61 2.57,-0.31 2.57,0.00 2.57,0.31 2.50,0.61 2.42,0.92 2.28,1.19 2.13,1.47 1.92,1.70 1.72,1.94 1.46,2.11 1.20,2.29 0.91,2.40 0.62,2.51 0.31,2.55 -0.00,2.59 -0.00,2.59 L 0,2.59 Z"></path></g><g transform="translate(196.74804410135016 49.92659670546527) rotate(0 10.086961829144059 8.000003980554084)" stroke="none"><path fill="#000000" d="M 2.61,0 Q 2.61,0 2.65,0.99 2.68,1.99 2.75,3.16 2.82,4.32 2.73,5.40 2.65,6.48 2.70,7.55 2.75,8.62 2.82,9.92 2.88,11.22 2.92,12.38 2.96,13.54 3.00,14.57 3.05,15.59 3.00,16.00 2.95,16.40 2.80,16.79 2.66,17.17 2.42,17.51 2.19,17.84 1.89,18.11 1.58,18.39 1.22,18.58 0.85,18.77 0.45,18.87 0.06,18.96 -0.34,18.96 -0.75,18.96 -1.15,18.87 -1.55,18.77 -1.91,18.58 -2.27,18.39 -2.58,18.11 -2.89,17.84 -3.12,17.51 -3.35,17.17 -3.50,16.79 -3.64,16.40 -3.69,16.00 -3.74,15.59 -3.08,14.27 -2.42,12.96 -1.63,11.36 -0.84,9.77 -0.05,8.34 0.72,6.91 1.71,5.76 2.69,4.61 3.67,3.61 4.66,2.61 5.82,1.71 6.99,0.81 7.74,-0.01 8.50,-0.84 9.27,-1.72 10.05,-2.59 10.96,-3.48 11.87,-4.37 12.84,-4.75 13.80,-5.14 14.24,-5.16 14.68,-5.18 15.11,-5.10 15.54,-5.02 15.94,-4.83 16.34,-4.65 16.68,-4.38 17.02,-4.10 17.29,-3.75 17.56,-3.41 17.73,-3.00 17.91,-2.60 17.98,-2.17 18.06,-1.74 18.03,-1.30 18.00,-0.86 17.86,-0.45 17.73,-0.03 17.50,0.33 17.27,0.71 16.95,1.01 16.64,1.32 16.26,1.54 15.88,1.77 15.46,1.89 15.04,2.02 16.51,-0.20 17.97,-2.43 18.35,-1.21 18.73,0.01 19.36,0.97 19.99,1.93 20.44,3.08 20.90,4.23 21.33,5.49 21.76,6.76 22.03,8.55 22.30,10.35 22.52,11.77 22.74,13.20 23.29,14.70 23.84,16.20 24.00,16.77 24.16,17.34 24.13,17.94 24.09,18.53 23.87,19.08 23.65,19.63 23.27,20.08 22.88,20.53 22.38,20.84 21.87,21.14 21.29,21.27 20.71,21.39 20.12,21.33 19.53,21.26 18.99,21.01 18.46,20.76 18.03,20.35 17.60,19.95 17.32,19.42 17.04,18.90 16.95,18.31 16.85,17.73 16.95,17.14 17.05,16.56 17.33,16.03 17.60,15.51 18.03,15.10 18.47,14.70 19.00,14.45 19.54,14.20 20.13,14.14 20.72,14.08 21.30,14.20 21.88,14.33 22.39,14.64 22.89,14.95 23.28,15.40 23.66,15.85 23.88,16.40 24.10,16.95 24.13,17.55 24.16,18.14 24.00,18.71 23.84,19.28 23.51,19.77 23.17,20.26 22.70,20.62 22.23,20.97 21.66,21.16 21.10,21.35 20.51,21.35 19.92,21.35 19.36,21.16 18.79,20.97 18.32,20.61 17.85,20.25 17.52,19.76 17.19,19.27 17.19,19.27 17.19,19.27 16.47,17.54 15.76,15.82 15.67,14.62 15.58,13.41 15.33,11.95 15.08,10.50 14.88,9.28 14.68,8.06 14.09,6.71 13.49,5.35 12.75,4.10 12.01,2.85 11.55,1.38 11.09,-0.08 12.45,-2.61 13.80,-5.14 14.24,-5.16 14.68,-5.18 15.11,-5.10 15.54,-5.02 15.94,-4.83 16.34,-4.65 16.68,-4.38 17.02,-4.10 17.29,-3.75 17.56,-3.41 17.73,-3.00 17.91,-2.60 17.98,-2.17 18.06,-1.74 18.03,-1.30 18.00,-0.86 17.86,-0.45 17.73,-0.03 17.50,0.33 17.27,0.71 16.95,1.01 16.64,1.32 16.26,1.54 15.89,1.77 15.47,1.89 15.05,2.02 15.55,1.51 16.04,1.01 15.08,2.39 14.12,3.78 12.88,4.95 11.64,6.13 10.62,6.80 9.60,7.48 8.69,8.41 7.78,9.35 6.85,10.45 5.92,11.55 5.29,12.72 4.66,13.88 3.97,14.99 3.27,16.09 2.70,16.99 2.12,17.89 2.58,16.74 3.05,15.59 3.00,16.00 2.95,16.40 2.80,16.79 2.66,17.17 2.42,17.51 2.19,17.84 1.89,18.11 1.58,18.39 1.22,18.58 0.85,18.77 0.46,18.87 0.06,18.96 -0.34,18.96 -0.75,18.96 -1.15,18.87 -1.55,18.77 -1.91,18.58 -2.27,18.39 -2.58,18.11 -2.89,17.84 -3.12,17.51 -3.35,17.17 -3.50,16.79 -3.64,16.40 -3.69,16.00 -3.74,15.59 -3.72,15.14 -3.71,14.69 -3.66,13.53 -3.60,12.37 -3.54,10.81 -3.48,9.25 -3.42,8.14 -3.35,7.03 -3.09,5.65 -2.82,4.26 -2.75,3.13 -2.68,1.99 -2.65,0.99 -2.61,0 -2.57,-0.31 -2.54,-0.62 -2.42,-0.92 -2.31,-1.21 -2.13,-1.47 -1.95,-1.73 -1.72,-1.94 -1.48,-2.15 -1.20,-2.30 -0.92,-2.44 -0.62,-2.52 -0.31,-2.59 0.00,-2.59 0.31,-2.59 0.62,-2.52 0.92,-2.44 1.20,-2.30 1.48,-2.15 1.72,-1.94 1.95,-1.73 2.13,-1.47 2.31,-1.21 2.43,-0.92 2.54,-0.62 2.57,-0.31 2.61,0.00 2.61,0.00 L 2.61,0 Z"></path></g><g transform="translate(241.96543540569803 53.05703679547878) rotate(0 -4.347812818444311 18.4347799549937)" stroke="none"><path fill="#000000" d="M -0.73,2.45 Q -0.73,2.45 -1.75,2.18 -2.76,1.91 -3.86,1.48 -4.96,1.06 -6.18,1.31 -7.39,1.57 -8.70,2.41 -10.00,3.25 -11.13,3.86 -12.26,4.46 -12.53,5.50 -12.81,6.53 -12.66,7.59 -12.52,8.65 -11.88,9.91 -11.24,11.17 -9.94,10.85 -8.63,10.53 -7.36,10.71 -6.09,10.89 -4.87,11.08 -3.64,11.27 -2.55,11.29 -1.45,11.30 -0.37,10.97 0.69,10.63 1.92,10.02 3.15,9.41 3.36,8.16 3.56,6.91 3.75,5.63 3.95,4.36 3.95,4.28 3.95,4.20 4.01,3.76 4.08,3.32 4.25,2.91 4.41,2.50 4.68,2.14 4.94,1.78 5.28,1.49 5.62,1.20 6.02,1.00 6.41,0.81 6.85,0.71 7.28,0.61 7.73,0.62 8.17,0.63 8.60,0.75 9.03,0.87 9.42,1.08 9.81,1.30 10.14,1.60 10.46,1.91 10.71,2.28 10.95,2.65 11.10,3.07 11.25,3.49 11.29,3.93 11.33,4.38 10.69,5.49 10.05,6.60 10.18,7.87 10.32,9.15 9.96,10.18 9.59,11.21 9.13,12.80 8.66,14.38 8.44,15.69 8.21,16.99 7.93,18.14 7.65,19.29 7.28,21.12 6.91,22.95 6.65,24.42 6.40,25.90 5.87,27.24 5.34,28.57 4.96,30.01 4.57,31.46 4.14,32.56 3.71,33.67 3.70,34.76 3.70,35.85 2.69,37.63 1.69,39.41 0.36,40.46 -0.96,41.51 -2.29,41.95 -3.63,42.38 -4.79,42.39 -5.95,42.41 -7.25,42.07 -8.54,41.73 -9.69,40.89 -10.84,40.05 -11.73,38.95 -12.62,37.85 -14.50,35.85 -16.38,33.85 -16.53,33.25 -16.68,32.64 -16.63,32.03 -16.57,31.41 -16.33,30.84 -16.08,30.27 -15.67,29.82 -15.25,29.36 -14.71,29.05 -14.17,28.75 -13.57,28.63 -12.96,28.52 -12.35,28.60 -11.73,28.69 -11.18,28.96 -10.63,29.24 -10.19,29.68 -9.75,30.12 -9.48,30.67 -9.20,31.23 -9.12,31.84 -9.04,32.46 -9.16,33.06 -9.28,33.67 -9.58,34.21 -9.89,34.75 -10.35,35.16 -10.81,35.57 -11.38,35.81 -11.95,36.06 -12.57,36.11 -13.18,36.15 -13.79,36.00 -14.39,35.85 -14.91,35.52 -15.43,35.18 -15.81,34.70 -16.20,34.22 -16.41,33.64 -16.62,33.05 -16.64,32.44 -16.65,31.82 -16.47,31.23 -16.29,30.63 -15.92,30.13 -15.56,29.63 -15.06,29.27 -14.56,28.91 -13.96,28.73 -13.37,28.55 -12.75,28.57 -12.13,28.59 -11.55,28.80 -10.97,29.02 -10.49,29.41 -10.01,29.80 -9.68,30.32 -9.35,30.84 -9.35,30.84 -9.35,30.84 -8.25,31.78 -7.15,32.71 -6.62,33.79 -6.10,34.86 -4.99,34.89 -3.89,34.91 -3.60,33.68 -3.30,32.45 -2.92,31.16 -2.53,29.86 -2.21,28.64 -1.89,27.41 -1.48,26.30 -1.07,25.19 -0.78,24.10 -0.50,23.01 -0.21,21.68 0.07,20.35 0.33,19.07 0.60,17.79 0.79,16.61 0.99,15.43 1.24,14.14 1.49,12.85 1.97,11.27 2.46,9.69 2.78,8.49 3.10,7.30 3.39,5.96 3.69,4.61 4.26,3.43 4.84,2.24 4.39,3.22 3.95,4.20 4.01,3.76 4.08,3.32 4.25,2.91 4.41,2.50 4.67,2.14 4.94,1.78 5.28,1.49 5.62,1.20 6.01,1.00 6.41,0.81 6.85,0.71 7.28,0.61 7.73,0.62 8.17,0.63 8.60,0.75 9.03,0.87 9.42,1.08 9.81,1.30 10.13,1.60 10.46,1.91 10.71,2.28 10.95,2.65 11.10,3.07 11.24,3.49 11.29,3.93 11.33,4.37 11.33,4.45 11.32,4.54 11.26,5.78 11.19,7.02 10.70,8.62 10.21,10.22 9.48,11.60 8.75,12.99 8.06,14.05 7.37,15.10 5.92,15.96 4.46,16.81 2.70,17.41 0.93,18.02 -0.74,18.31 -2.41,18.60 -3.78,18.54 -5.15,18.49 -6.62,18.18 -8.08,17.87 -9.49,17.66 -10.90,17.45 -12.18,17.23 -13.46,17.01 -14.73,16.48 -16.00,15.94 -16.90,14.91 -17.80,13.87 -18.35,12.66 -18.90,11.44 -19.26,10.13 -19.61,8.83 -19.74,7.37 -19.86,5.91 -19.81,4.85 -19.75,3.78 -19.38,2.78 -19.00,1.77 -17.95,0.60 -16.91,-0.57 -15.85,-1.14 -14.79,-1.72 -13.47,-2.22 -12.14,-2.72 -11.08,-3.27 -10.02,-3.82 -8.11,-4.26 -6.19,-4.70 -5.02,-4.55 -3.85,-4.40 -2.54,-3.75 -1.23,-3.11 -0.24,-2.78 0.73,-2.45 1.01,-2.33 1.30,-2.20 1.54,-2.01 1.79,-1.83 1.98,-1.59 2.17,-1.34 2.30,-1.06 2.43,-0.78 2.49,-0.48 2.55,-0.18 2.54,0.12 2.52,0.43 2.43,0.73 2.34,1.02 2.19,1.29 2.03,1.55 1.81,1.78 1.60,2.00 1.33,2.16 1.07,2.32 0.78,2.42 0.48,2.51 0.18,2.53 -0.12,2.55 -0.43,2.50 -0.73,2.45 -0.73,2.45 L -0.73,2.45 Z"></path></g><g transform="translate(266.66108227220616 93.05703679547878) rotate(0 8.869575832201065 -7.4782595427136584)" stroke="none"><path fill="#000000" d="M -2.17,-1.50 Q -2.17,-1.50 -1.24,-2.78 -0.30,-4.06 0.45,-4.96 1.21,-5.87 2.15,-7.10 3.08,-8.33 3.76,-10.05 4.44,-11.77 4.65,-12.95 4.87,-14.13 5.99,-15.61 7.12,-17.09 9.11,-16.97 11.10,-16.85 12.14,-15.81 13.18,-14.76 14.16,-14.00 15.14,-13.24 16.64,-12.17 18.14,-11.10 18.68,-10.94 19.22,-10.79 19.68,-10.47 20.15,-10.15 20.48,-9.70 20.82,-9.25 20.99,-8.71 21.17,-8.18 21.16,-7.62 21.16,-7.05 20.97,-6.52 20.79,-5.99 20.44,-5.55 20.10,-5.10 19.63,-4.79 19.16,-4.48 18.62,-4.34 18.08,-4.19 17.52,-4.23 16.96,-4.26 16.44,-4.48 15.92,-4.69 15.49,-5.06 15.07,-5.42 14.78,-5.91 14.50,-6.39 14.38,-6.94 14.26,-7.49 14.33,-8.05 14.40,-8.61 14.64,-9.12 14.88,-9.62 15.27,-10.03 15.66,-10.43 16.16,-10.69 16.66,-10.95 17.21,-11.03 17.77,-11.12 18.32,-11.02 18.87,-10.93 19.37,-10.66 19.86,-10.39 20.24,-9.98 20.63,-9.57 20.86,-9.06 21.09,-8.54 21.14,-7.99 21.20,-7.43 21.07,-6.88 20.95,-6.33 20.65,-5.85 20.36,-5.37 19.93,-5.01 19.50,-4.65 18.97,-4.45 18.45,-4.25 17.89,-4.22 17.33,-4.20 17.33,-4.20 17.33,-4.20 15.82,-5.01 14.30,-5.82 13.13,-6.50 11.95,-7.17 10.74,-8.29 9.53,-9.40 8.90,-10.46 8.28,-11.53 9.56,-12.03 10.85,-12.54 10.38,-11.05 9.91,-9.55 9.15,-7.88 8.38,-6.20 7.33,-4.93 6.27,-3.66 5.09,-2.39 3.90,-1.13 3.04,0.18 2.17,1.50 1.96,1.74 1.75,1.98 1.48,2.16 1.22,2.34 0.92,2.45 0.62,2.56 0.31,2.60 -0.00,2.64 -0.32,2.60 -0.63,2.56 -0.93,2.45 -1.23,2.33 -1.49,2.15 -1.75,1.97 -1.96,1.73 -2.17,1.49 -2.32,1.21 -2.47,0.93 -2.54,0.62 -2.62,0.31 -2.62,-0.00 -2.62,-0.32 -2.54,-0.63 -2.47,-0.94 -2.32,-1.22 -2.17,-1.50 -2.17,-1.50 L -2.17,-1.50 Z"></path></g><g transform="translate(275.3567344461193 77.05702883437152) rotate(0 3.4782741380774382 -4.173909062924395)" stroke="none"><path fill="#000000" d="M -2.58,0 Q -2.58,0 -2.60,-1.19 -2.62,-2.39 -2.86,-3.72 -3.09,-5.04 -3.59,-5.92 -4.09,-6.80 -4.18,-7.16 -4.28,-7.51 -4.29,-7.87 -4.29,-8.24 -4.22,-8.59 -4.14,-8.95 -3.97,-9.28 -3.81,-9.60 -3.58,-9.88 -3.34,-10.16 -3.04,-10.37 -2.75,-10.59 -2.41,-10.73 -2.07,-10.86 -1.71,-10.91 -1.35,-10.97 -0.99,-10.93 -0.62,-10.89 -0.28,-10.77 0.05,-10.65 0.36,-10.45 0.66,-10.25 0.91,-9.98 1.16,-9.71 1.34,-9.40 1.51,-9.08 0.39,-9.96 -0.73,-10.84 0.31,-10.46 1.36,-10.08 2.56,-9.04 3.77,-8.00 4.52,-7.25 5.28,-6.49 6.82,-6.11 8.35,-5.73 8.88,-5.64 9.41,-5.55 9.88,-5.30 10.35,-5.05 10.72,-4.66 11.08,-4.27 11.31,-3.79 11.53,-3.30 11.58,-2.77 11.64,-2.24 11.52,-1.72 11.41,-1.20 11.13,-0.74 10.85,-0.28 10.44,0.05 10.03,0.40 9.54,0.59 9.04,0.79 8.51,0.81 7.97,0.84 7.46,0.70 6.95,0.55 6.50,0.25 6.06,-0.04 5.74,-0.47 5.42,-0.89 5.25,-1.40 5.08,-1.91 5.08,-2.44 5.09,-2.98 5.26,-3.48 5.43,-3.99 5.76,-4.41 6.08,-4.84 6.52,-5.13 6.97,-5.43 7.48,-5.57 8.00,-5.71 8.53,-5.68 9.07,-5.65 9.56,-5.45 10.06,-5.25 10.46,-4.90 10.87,-4.56 11.14,-4.10 11.41,-3.64 11.53,-3.12 11.64,-2.60 11.58,-2.06 11.52,-1.53 11.29,-1.05 11.07,-0.57 10.70,-0.18 10.33,0.20 9.86,0.44 9.38,0.69 8.86,0.78 8.33,0.86 8.33,0.86 8.33,0.86 5.26,0.07 2.19,-0.71 0.96,-1.78 -0.25,-2.85 -0.70,-3.98 -1.15,-5.10 -2.62,-5.95 -4.09,-6.80 -4.18,-7.16 -4.28,-7.51 -4.29,-7.87 -4.29,-8.24 -4.22,-8.59 -4.14,-8.95 -3.97,-9.28 -3.81,-9.60 -3.58,-9.88 -3.34,-10.16 -3.04,-10.37 -2.75,-10.59 -2.41,-10.73 -2.07,-10.86 -1.71,-10.91 -1.35,-10.97 -0.99,-10.93 -0.62,-10.89 -0.28,-10.77 0.05,-10.65 0.36,-10.45 0.66,-10.25 0.91,-9.98 1.16,-9.72 1.33,-9.40 1.51,-9.08 1.60,-8.59 1.68,-8.11 2.11,-6.67 2.54,-5.22 2.58,-3.81 2.62,-2.39 2.60,-1.19 2.58,0 2.55,0.30 2.51,0.61 2.40,0.91 2.29,1.20 2.11,1.45 1.93,1.71 1.70,1.92 1.47,2.13 1.19,2.27 0.91,2.42 0.61,2.49 0.31,2.57 -0.00,2.56 -0.31,2.56 -0.61,2.49 -0.91,2.42 -1.19,2.27 -1.47,2.13 -1.70,1.92 -1.93,1.71 -2.11,1.45 -2.29,1.20 -2.40,0.91 -2.51,0.61 -2.55,0.30 -2.58,-0.00 -2.58,-0.00 L -2.58,0 Z"></path></g><g transform="translate(273.61760401133654 69.40486553613755) rotate(0 -5.565212083899382 3.8260816491169862)" stroke="none"><path fill="#000000" d="M 1.54,2.06 Q 1.54,2.06 0.33,2.94 -0.87,3.82 -2.40,5.05 -3.92,6.28 -5.03,6.85 -6.13,7.42 -7.27,8.15 -8.41,8.88 -8.68,9.28 -8.95,9.68 -9.33,9.98 -9.71,10.27 -10.17,10.43 -10.63,10.58 -11.11,10.59 -11.59,10.59 -12.05,10.44 -12.51,10.29 -12.89,10.00 -13.28,9.71 -13.55,9.31 -13.82,8.91 -13.95,8.45 -14.09,7.99 -14.06,7.51 -14.04,7.02 -13.86,6.58 -13.69,6.13 -13.38,5.76 -13.07,5.39 -12.66,5.14 -12.24,4.89 -11.77,4.78 -11.30,4.67 -10.82,4.72 -10.35,4.77 -9.91,4.97 -9.47,5.17 -9.12,5.50 -8.76,5.83 -8.54,6.25 -8.31,6.68 -8.23,7.15 -8.15,7.63 -8.22,8.11 -8.30,8.58 -8.52,9.01 -8.74,9.44 -9.09,9.77 -9.44,10.10 -9.88,10.31 -10.31,10.51 -10.79,10.57 -11.27,10.62 -11.74,10.52 -12.21,10.42 -12.63,10.18 -13.04,9.93 -13.36,9.56 -13.67,9.20 -13.85,8.75 -14.03,8.30 -14.06,7.82 -14.09,7.34 -13.96,6.88 -13.84,6.41 -13.84,6.41 -13.84,6.41 -11.41,4.39 -8.98,2.36 -7.95,2.09 -6.92,1.83 -5.42,0.80 -3.92,-0.22 -2.73,-1.14 -1.54,-2.06 -1.27,-2.21 -1.00,-2.37 -0.70,-2.45 -0.41,-2.54 -0.10,-2.55 0.20,-2.56 0.51,-2.50 0.81,-2.44 1.09,-2.30 1.37,-2.17 1.61,-1.97 1.85,-1.78 2.04,-1.53 2.23,-1.28 2.35,-1.00 2.47,-0.71 2.52,-0.40 2.57,-0.10 2.54,0.20 2.52,0.51 2.42,0.81 2.32,1.10 2.16,1.36 1.99,1.63 1.76,1.84 1.54,2.06 1.54,2.06 L 1.54,2.06 Z"></path></g><g transform="translate(276.7480441013503 65.92660466657253) rotate(0 -2.9565164317256176 -10.086961829144002)" stroke="none"><path fill="#000000" d="M -0.58,-2.61 Q -0.58,-2.61 0.31,-2.84 1.20,-3.07 2.32,-3.44 3.43,-3.80 3.98,-5.10 4.53,-6.40 4.20,-7.56 3.88,-8.72 3.60,-9.85 3.32,-10.98 2.87,-12.46 2.42,-13.94 1.53,-14.60 0.65,-15.26 -1.24,-15.83 -3.13,-16.41 -4.28,-16.49 -5.43,-16.57 -6.75,-16.23 -8.07,-15.89 -10.05,-15.38 -12.04,-14.86 -12.59,-14.70 -13.14,-14.54 -13.72,-14.57 -14.30,-14.59 -14.83,-14.80 -15.37,-15.01 -15.81,-15.38 -16.26,-15.75 -16.56,-16.24 -16.86,-16.73 -16.99,-17.30 -17.12,-17.86 -17.06,-18.43 -17.00,-19.01 -16.77,-19.53 -16.53,-20.06 -16.13,-20.48 -15.74,-20.90 -15.23,-21.18 -14.73,-21.45 -14.16,-21.55 -13.59,-21.65 -13.02,-21.56 -12.45,-21.47 -11.94,-21.20 -11.43,-20.94 -11.03,-20.52 -10.63,-20.11 -10.38,-19.59 -10.13,-19.07 -10.07,-18.49 -10.00,-17.92 -10.12,-17.36 -10.24,-16.79 -10.53,-16.29 -10.82,-15.80 -11.26,-15.42 -11.70,-15.04 -12.23,-14.83 -12.76,-14.61 -13.34,-14.57 -13.92,-14.54 -14.47,-14.68 -15.03,-14.83 -15.51,-15.15 -15.99,-15.47 -16.34,-15.93 -16.70,-16.39 -16.88,-16.93 -17.07,-17.48 -17.08,-18.05 -17.08,-18.63 -16.90,-19.18 -16.72,-19.72 -16.38,-20.19 -16.03,-20.65 -15.56,-20.98 -15.08,-21.30 -15.08,-21.30 -15.09,-21.30 -13.18,-21.87 -11.28,-22.44 -10.09,-22.83 -8.90,-23.22 -6.80,-23.48 -4.70,-23.75 -3.49,-23.63 -2.27,-23.52 -1.22,-23.00 -0.16,-22.48 0.89,-22.27 1.96,-22.06 3.22,-21.67 4.49,-21.29 5.93,-20.14 7.38,-19.00 7.99,-17.74 8.60,-16.48 9.09,-14.83 9.58,-13.17 9.75,-12.00 9.92,-10.83 10.07,-9.47 10.22,-8.11 10.34,-6.90 10.45,-5.69 9.77,-4.02 9.09,-2.36 8.16,-1.02 7.23,0.30 6.32,0.92 5.42,1.55 3.90,1.91 2.39,2.27 1.48,2.44 0.58,2.61 0.25,2.64 -0.06,2.67 -0.38,2.62 -0.69,2.58 -0.99,2.46 -1.29,2.33 -1.55,2.14 -1.81,1.96 -2.02,1.71 -2.23,1.46 -2.37,1.17 -2.52,0.89 -2.59,0.57 -2.66,0.26 -2.65,-0.06 -2.64,-0.38 -2.56,-0.69 -2.47,-1.00 -2.32,-1.28 -2.16,-1.56 -1.94,-1.80 -1.72,-2.04 -1.45,-2.21 -1.18,-2.39 -0.88,-2.50 -0.57,-2.61 -0.58,-2.61 L -0.58,-2.61 Z"></path></g><g transform="translate(259.0089189739725 52.01356118831154) rotate(0 6.0869565217391255 7.826086956521976)" stroke="none"><path fill="#000000" d="M 2.60,0 Q 2.60,0 2.63,1.09 2.65,2.19 2.75,3.52 2.84,4.85 3.40,6.02 3.97,7.19 4.38,8.19 4.78,9.19 5.94,9.92 7.09,10.65 8.17,11.25 9.25,11.85 10.73,11.99 12.20,12.13 12.77,12.23 13.33,12.32 13.83,12.60 14.33,12.87 14.71,13.29 15.10,13.70 15.33,14.22 15.57,14.74 15.62,15.31 15.68,15.87 15.55,16.43 15.42,16.98 15.13,17.47 14.83,17.95 14.39,18.32 13.95,18.68 13.42,18.89 12.89,19.09 12.32,19.12 11.75,19.14 11.21,18.98 10.66,18.83 10.19,18.50 9.72,18.18 9.38,17.72 9.04,17.26 8.87,16.72 8.69,16.18 8.70,15.61 8.70,15.04 8.89,14.50 9.08,13.97 9.43,13.52 9.78,13.07 10.25,12.75 10.72,12.44 11.27,12.29 11.82,12.15 12.39,12.18 12.96,12.22 13.49,12.44 14.01,12.65 14.44,13.02 14.87,13.40 15.16,13.89 15.45,14.38 15.57,14.94 15.68,15.49 15.62,16.06 15.55,16.62 15.30,17.14 15.06,17.65 14.66,18.06 14.27,18.47 13.76,18.73 13.26,18.99 12.69,19.08 12.13,19.17 12.13,19.17 12.13,19.17 9.33,18.64 6.52,18.11 5.48,17.54 4.44,16.97 3.49,16.39 2.54,15.81 1.47,14.74 0.39,13.67 -0.21,12.74 -0.81,11.81 -1.38,10.30 -1.95,8.80 -2.40,6.88 -2.84,4.95 -2.75,3.57 -2.65,2.19 -2.63,1.09 -2.60,0 -2.56,-0.31 -2.53,-0.62 -2.41,-0.91 -2.30,-1.21 -2.12,-1.46 -1.95,-1.72 -1.71,-1.93 -1.48,-2.14 -1.20,-2.29 -0.92,-2.43 -0.61,-2.51 -0.31,-2.58 0.00,-2.58 0.31,-2.58 0.61,-2.51 0.92,-2.43 1.20,-2.29 1.48,-2.14 1.71,-1.93 1.95,-1.72 2.12,-1.46 2.30,-1.21 2.41,-0.91 2.53,-0.62 2.56,-0.31 2.60,0.00 2.60,0.00 L 2.60,0 Z"></path></g><g transform="translate(287.87849480617353 47.14399066351598) rotate(0 12.869554602581502 2.4347852623977815)" stroke="none"><path fill="#000000" d="M 0.95,-2.47 Q 0.95,-2.47 2.24,-1.96 3.54,-1.45 4.73,-1.14 5.93,-0.83 7.27,-0.53 8.62,-0.24 10.16,-0.09 11.70,0.05 13.20,0.41 14.71,0.77 15.77,0.84 16.83,0.91 18.32,1.07 19.80,1.23 20.90,1.16 22.00,1.08 24.24,1.28 26.48,1.47 27.00,1.68 27.52,1.89 27.95,2.25 28.38,2.61 28.67,3.10 28.96,3.58 29.08,4.13 29.20,4.68 29.14,5.23 29.08,5.79 28.85,6.30 28.61,6.81 28.22,7.22 27.84,7.63 27.34,7.89 26.84,8.16 26.29,8.25 25.73,8.34 25.18,8.25 24.63,8.16 24.13,7.89 23.63,7.63 23.25,7.22 22.86,6.81 22.62,6.30 22.39,5.79 22.33,5.24 22.27,4.68 22.39,4.13 22.51,3.58 22.80,3.10 23.09,2.62 23.51,2.25 23.94,1.89 24.46,1.68 24.99,1.47 25.55,1.44 26.11,1.41 26.65,1.56 27.19,1.71 27.66,2.03 28.12,2.34 28.46,2.79 28.80,3.24 28.98,3.77 29.16,4.30 29.16,4.86 29.16,5.43 28.98,5.96 28.80,6.49 28.46,6.94 28.12,7.39 27.66,7.70 27.19,8.02 26.65,8.17 26.11,8.32 25.55,8.29 24.99,8.26 24.99,8.26 24.99,8.26 23.30,8.10 21.60,7.94 20.41,7.86 19.21,7.78 17.59,7.56 15.96,7.34 14.61,7.10 13.26,6.86 12.28,6.44 11.30,6.01 9.46,5.75 7.62,5.48 6.18,5.05 4.75,4.61 3.20,4.03 1.65,3.45 0.35,2.96 -0.95,2.47 -1.23,2.32 -1.51,2.17 -1.75,1.96 -1.99,1.74 -2.17,1.48 -2.35,1.22 -2.46,0.92 -2.57,0.62 -2.61,0.30 -2.65,-0.01 -2.61,-0.32 -2.57,-0.64 -2.45,-0.94 -2.34,-1.24 -2.16,-1.50 -1.97,-1.76 -1.73,-1.97 -1.49,-2.19 -1.21,-2.33 -0.92,-2.48 -0.61,-2.55 -0.30,-2.63 0.01,-2.63 0.33,-2.63 0.64,-2.55 0.95,-2.47 0.95,-2.47 L 0.95,-2.47 Z"></path></g><g transform="translate(297.61760931874153 69.40486553613755) rotate(0 7.999997346297562 -21.21739263119889)" stroke="none"><path fill="#000000" d="M -2.50,0.58 Q -2.50,0.58 -2.83,-1.12 -3.17,-2.84 -3.39,-4.05 -3.62,-5.26 -3.74,-6.44 -3.85,-7.62 -3.87,-9.48 -3.89,-11.35 -3.95,-13.47 -4.01,-15.59 -4.26,-17.35 -4.50,-19.11 -4.60,-20.55 -4.69,-21.99 -4.61,-23.35 -4.53,-24.71 -4.54,-25.79 -4.55,-26.88 -4.58,-27.95 -4.60,-29.02 -4.64,-30.38 -4.69,-31.74 -4.73,-33.17 -4.77,-34.61 -4.18,-36.56 -3.59,-38.52 -2.84,-39.74 -2.10,-40.96 -1.12,-41.89 -0.15,-42.81 1.11,-44.06 2.38,-45.30 3.61,-45.64 4.84,-45.97 6.06,-45.85 7.28,-45.73 8.89,-44.83 10.49,-43.94 11.49,-43.55 12.48,-43.16 13.86,-42.34 15.25,-41.52 16.34,-40.47 17.43,-39.43 18.28,-38.11 19.13,-36.80 20.21,-34.88 21.28,-32.96 21.29,-32.38 21.29,-31.80 21.11,-31.24 20.93,-30.69 20.58,-30.22 20.24,-29.75 19.76,-29.42 19.28,-29.09 18.72,-28.93 18.16,-28.77 17.58,-28.79 16.99,-28.82 16.45,-29.03 15.91,-29.24 15.46,-29.61 15.01,-29.99 14.71,-30.48 14.40,-30.98 14.27,-31.55 14.14,-32.11 14.20,-32.69 14.26,-33.27 14.50,-33.80 14.74,-34.33 15.13,-34.76 15.53,-35.19 16.04,-35.46 16.55,-35.74 17.13,-35.84 17.70,-35.94 18.27,-35.85 18.85,-35.76 19.37,-35.50 19.88,-35.23 20.29,-34.81 20.69,-34.39 20.94,-33.87 21.19,-33.34 21.26,-32.76 21.33,-32.18 21.21,-31.61 21.09,-31.04 20.80,-30.54 20.50,-30.04 20.06,-29.66 19.62,-29.28 19.08,-29.06 18.54,-28.84 17.96,-28.80 17.38,-28.76 16.82,-28.91 16.25,-29.06 15.77,-29.38 15.28,-29.71 14.93,-30.17 14.57,-30.63 14.38,-31.18 14.19,-31.73 14.19,-31.73 14.19,-31.73 13.29,-33.03 12.40,-34.33 11.58,-35.11 10.75,-35.89 9.78,-36.46 8.80,-37.03 7.02,-37.60 5.25,-38.17 4.20,-37.32 3.15,-36.47 2.57,-35.50 1.99,-34.54 1.95,-33.14 1.90,-31.73 1.86,-30.36 1.81,-28.99 1.76,-27.85 1.72,-26.72 1.50,-24.94 1.29,-23.17 1.25,-22.04 1.21,-20.90 1.22,-19.49 1.23,-18.08 1.36,-17.01 1.48,-15.93 1.58,-14.46 1.68,-12.99 1.61,-11.86 1.55,-10.73 1.42,-9.35 1.29,-7.97 1.43,-5.96 1.57,-3.95 2.03,-2.27 2.50,-0.58 2.53,-0.28 2.56,0.02 2.52,0.33 2.48,0.64 2.37,0.92 2.26,1.21 2.08,1.47 1.90,1.72 1.67,1.92 1.43,2.12 1.16,2.27 0.88,2.41 0.58,2.48 0.28,2.55 -0.02,2.55 -0.33,2.54 -0.63,2.46 -0.93,2.39 -1.20,2.24 -1.48,2.09 -1.71,1.89 -1.94,1.68 -2.11,1.42 -2.28,1.16 -2.39,0.87 -2.50,0.58 -2.50,0.58 L -2.50,0.58 Z"></path></g><g transform="translate(321.2697938465948 48.53530031874652) rotate(0 12.347823433254064 1.9130408245587205)" stroke="none"><path fill="#000000" d="M 0.83,-2.50 Q 0.83,-2.50 2.03,-2.11 3.24,-1.72 4.52,-1.45 5.80,-1.19 7.41,-0.74 9.01,-0.30 10.59,-0.15 12.17,-0.00 13.89,-0.03 15.61,-0.06 17.62,0.20 19.64,0.48 22.16,0.47 24.69,0.46 25.23,0.55 25.76,0.64 26.24,0.90 26.72,1.15 27.10,1.54 27.47,1.94 27.70,2.43 27.92,2.92 27.98,3.46 28.04,4.00 27.93,4.53 27.81,5.06 27.53,5.53 27.25,5.99 26.83,6.35 26.42,6.70 25.92,6.90 25.41,7.10 24.87,7.13 24.33,7.16 23.80,7.01 23.28,6.87 22.83,6.56 22.38,6.26 22.05,5.82 21.72,5.39 21.55,4.88 21.38,4.36 21.38,3.82 21.38,3.28 21.55,2.76 21.73,2.25 22.05,1.82 22.38,1.38 22.83,1.08 23.28,0.77 23.81,0.63 24.33,0.48 24.87,0.51 25.41,0.54 25.92,0.74 26.42,0.95 26.84,1.30 27.25,1.65 27.53,2.11 27.81,2.58 27.93,3.11 28.04,3.64 27.98,4.18 27.92,4.72 27.70,5.21 27.47,5.71 27.09,6.10 26.72,6.49 26.24,6.75 25.76,7.00 25.22,7.09 24.69,7.18 24.69,7.18 24.69,7.18 22.75,7.15 20.80,7.13 19.67,6.99 18.54,6.85 17.04,6.57 15.54,6.30 13.84,6.25 12.14,6.19 10.85,5.96 9.56,5.73 8.38,5.49 7.20,5.25 6.01,4.79 4.81,4.32 3.18,3.82 1.55,3.32 0.36,2.91 -0.83,2.50 -1.12,2.37 -1.41,2.23 -1.65,2.03 -1.90,1.83 -2.09,1.57 -2.28,1.32 -2.41,1.03 -2.54,0.73 -2.59,0.42 -2.64,0.10 -2.61,-0.21 -2.59,-0.52 -2.49,-0.83 -2.38,-1.13 -2.21,-1.40 -2.04,-1.67 -1.81,-1.89 -1.58,-2.11 -1.31,-2.27 -1.03,-2.43 -0.73,-2.52 -0.42,-2.61 -0.10,-2.62 0.21,-2.63 0.52,-2.57 0.83,-2.50 0.83,-2.50 L 0.83,-2.50 Z"></path></g><g transform="translate(328.9219571448285 69.40486553613755) rotate(0 8.173921004585509 -22.086957848590373)" stroke="none"><path fill="#000000" d="M -2.20,0 Q -2.20,0 -2.20,-1.59 -2.20,-3.19 -2.37,-5.45 -2.55,-7.71 -2.79,-10.12 -3.03,-12.54 -3.15,-14.52 -3.28,-16.50 -3.37,-18.25 -3.46,-20.00 -3.53,-21.65 -3.59,-23.30 -3.68,-24.39 -3.77,-25.49 -3.92,-27.43 -4.06,-29.37 -4.17,-31.13 -4.27,-32.89 -4.36,-34.59 -4.44,-36.29 -4.51,-37.72 -4.58,-39.16 -4.41,-40.95 -4.25,-42.74 -3.72,-43.84 -3.20,-44.95 -1.86,-45.98 -0.52,-47.01 0.58,-47.23 1.70,-47.45 3.12,-47.33 4.54,-47.20 6.34,-46.27 8.14,-45.34 9.62,-44.57 11.10,-43.79 12.01,-43.07 12.92,-42.34 13.77,-41.60 14.63,-40.87 15.50,-40.06 16.36,-39.25 17.14,-38.18 17.92,-37.12 18.67,-35.94 19.43,-34.77 20.38,-32.85 21.34,-30.92 21.47,-30.37 21.60,-29.81 21.55,-29.24 21.50,-28.67 21.27,-28.15 21.04,-27.63 20.65,-27.21 20.27,-26.79 19.77,-26.51 19.27,-26.24 18.70,-26.13 18.14,-26.03 17.58,-26.11 17.01,-26.20 16.50,-26.46 15.99,-26.71 15.60,-27.12 15.20,-27.53 14.95,-28.04 14.70,-28.56 14.63,-29.12 14.56,-29.69 14.67,-30.25 14.78,-30.81 15.07,-31.30 15.35,-31.80 15.78,-32.18 16.21,-32.55 16.74,-32.77 17.26,-32.99 17.83,-33.03 18.40,-33.07 18.96,-32.93 19.51,-32.79 19.99,-32.48 20.46,-32.16 20.82,-31.71 21.17,-31.27 21.36,-30.73 21.55,-30.19 21.56,-29.62 21.57,-29.05 21.40,-28.50 21.23,-27.96 20.89,-27.50 20.55,-27.04 20.08,-26.71 19.62,-26.38 19.07,-26.22 18.52,-26.06 17.95,-26.08 17.38,-26.10 16.85,-26.30 16.31,-26.51 15.87,-26.87 15.43,-27.23 15.13,-27.71 14.83,-28.20 14.83,-28.20 14.83,-28.20 14.17,-29.92 13.51,-31.64 12.76,-32.58 12.02,-33.52 11.35,-34.41 10.67,-35.30 9.69,-36.26 8.71,-37.22 7.69,-37.94 6.67,-38.66 5.03,-39.53 3.38,-40.39 2.49,-41.06 1.59,-41.73 1.34,-40.44 1.10,-39.16 1.03,-37.72 0.96,-36.29 0.88,-34.59 0.80,-32.89 0.69,-31.14 0.58,-29.38 0.46,-27.45 0.33,-25.53 0.26,-24.44 0.18,-23.35 0.17,-21.74 0.16,-20.13 0.19,-18.44 0.22,-16.75 0.37,-14.89 0.52,-13.02 0.93,-10.61 1.35,-8.20 1.77,-5.70 2.20,-3.20 2.20,-1.60 2.20,0 2.16,0.26 2.13,0.52 2.04,0.77 1.94,1.02 1.79,1.24 1.64,1.45 1.44,1.63 1.24,1.81 1.01,1.93 0.78,2.05 0.52,2.12 0.26,2.18 -0.00,2.18 -0.26,2.18 -0.52,2.12 -0.78,2.05 -1.01,1.93 -1.24,1.81 -1.44,1.63 -1.64,1.45 -1.79,1.24 -1.94,1.02 -2.04,0.77 -2.13,0.52 -2.16,0.26 -2.20,-0.00 -2.20,-0.00 L -2.20,0 Z"></path></g><g stroke-linecap="round"><g transform="translate(271.4725932951271 49.07805898971128) rotate(0 0.2723656602474307 -19.92542029823744)"><path d="M-1.4 -0.77 C-1.19 -6.55, 0.03 -29.07, 0.48 -35.09 M3.03 -3.66 C2.81 -10.18, -1.85 -34.07, -2.49 -39.08" stroke="#000000" stroke-width="4" fill="none"></path></g></g><g stroke-linecap="round"><g transform="translate(271.4725932951271 12.108371267765506) rotate(0 -89.19512558399279 -0.7114162774114448)"><path d="M-2.39 0.25 C-31.86 -0.42, -148.9 -1.52, -178.48 -1.49 M1.5 -2.09 C-28.05 -1.31, -149.37 -0.2, -179.89 0.67" stroke="#000000" stroke-width="4" fill="none"></path></g></g><g stroke-linecap="round"><g transform="translate(90.86651419356463 14.53263218750999) rotate(0 2.1485852822737286 41.45455399263983)"><path d="M2.75 -2.58 C3.4 11.51, 3.75 67.53, 3.28 82.06 M0.8 2.19 C1.26 16.96, 1.01 72.48, 1.84 85.49" stroke="#000000" stroke-width="4" fill="none"></path></g></g><g stroke-linecap="round"><g transform="translate(10.866514193564626 104.22956489347598) rotate(0 225.4093470494517 -1.619375637275425)"><path d="M1.67 0.78 C75.89 0.12, 371.44 -3.31, 446.33 -4.02 M-0.87 -1.27 C74.15 -1.57, 376.41 -1.23, 451.69 -1.15" stroke="#000000" stroke-width="4" fill="none"></path></g></g></svg>